<svg xmlns="http://www.w3.org/2000/svg" xmlns:xlink="http://www.w3.org/1999/xlink" width="500" zoomAndPan="magnify" viewBox="0 0 375 374.999991" height="500" preserveAspectRatio="xMidYMid meet" version="1.0"><defs><g/><clipPath id="dd07a6061f"><path d="M 76.773438 90.378906 L 259.347656 90.378906 L 259.347656 272.953125 L 76.773438 272.953125 Z M 76.773438 90.378906 " clip-rule="nonzero"/></clipPath><clipPath id="939e179c6f"><path d="M 168.058594 272.953125 C 143.6875 272.953125 120.738281 263.464844 103.515625 246.207031 C 86.257812 228.988281 76.773438 206.039062 76.773438 181.664062 C 76.773438 157.292969 86.257812 134.34375 103.515625 117.121094 C 120.738281 99.863281 143.6875 90.378906 168.058594 90.378906 C 192.433594 90.378906 215.382812 99.863281 232.605469 117.121094 C 249.863281 134.378906 259.347656 157.292969 259.347656 181.664062 C 259.347656 206.039062 249.863281 228.988281 232.605469 246.207031 C 215.382812 263.464844 192.433594 272.953125 168.058594 272.953125 Z M 168.058594 95.851562 C 145.148438 95.851562 123.582031 104.789062 107.382812 120.988281 C 91.183594 137.1875 82.246094 158.753906 82.246094 181.664062 C 82.246094 204.578125 91.183594 226.140625 107.382812 242.339844 C 123.582031 258.542969 145.148438 267.480469 168.058594 267.480469 C 190.972656 267.480469 212.535156 258.542969 228.734375 242.339844 C 244.9375 226.140625 253.875 204.578125 253.875 181.664062 C 253.875 158.753906 244.9375 137.1875 228.734375 120.988281 C 212.535156 104.789062 190.972656 95.851562 168.058594 95.851562 Z M 168.058594 95.851562 " clip-rule="nonzero"/></clipPath><clipPath id="c968da9f22"><path d="M 0.773438 0.378906 L 183.347656 0.378906 L 183.347656 182.953125 L 0.773438 182.953125 Z M 0.773438 0.378906 " clip-rule="nonzero"/></clipPath><clipPath id="868c5c5e32"><path d="M 92.058594 182.953125 C 67.6875 182.953125 44.738281 173.464844 27.515625 156.207031 C 10.257812 138.988281 0.773438 116.039062 0.773438 91.664062 C 0.773438 67.292969 10.257812 44.34375 27.515625 27.121094 C 44.738281 9.863281 67.6875 0.378906 92.058594 0.378906 C 116.433594 0.378906 139.382812 9.863281 156.605469 27.121094 C 173.863281 44.378906 183.347656 67.292969 183.347656 91.664062 C 183.347656 116.039062 173.863281 138.988281 156.605469 156.207031 C 139.382812 173.464844 116.433594 182.953125 92.058594 182.953125 Z M 92.058594 5.851562 C 69.148438 5.851562 47.582031 14.789062 31.382812 30.988281 C 15.183594 47.1875 6.246094 68.753906 6.246094 91.664062 C 6.246094 114.578125 15.183594 136.140625 31.382812 152.339844 C 47.582031 168.542969 69.148438 177.480469 92.058594 177.480469 C 114.972656 177.480469 136.535156 168.542969 152.734375 152.339844 C 168.9375 136.140625 177.875 114.578125 177.875 91.664062 C 177.875 68.753906 168.9375 47.1875 152.734375 30.988281 C 136.535156 14.789062 114.972656 5.851562 92.058594 5.851562 Z M 92.058594 5.851562 " clip-rule="nonzero"/></clipPath><clipPath id="f6c85812f5"><rect x="0" width="184" y="0" height="183"/></clipPath><clipPath id="a280a56344"><path d="M 93.925781 149.785156 L 273.910156 149.785156 L 273.910156 213.546875 L 93.925781 213.546875 Z M 93.925781 149.785156 " clip-rule="nonzero"/></clipPath><clipPath id="998fa9c811"><path d="M 0.925781 0.785156 L 180.910156 0.785156 L 180.910156 64.546875 L 0.925781 64.546875 Z M 0.925781 0.785156 " clip-rule="nonzero"/></clipPath><clipPath id="706bb5f478"><rect x="0" width="181" y="0" height="65"/></clipPath><clipPath id="cc130d3a24"><path d="M 188.710938 205.339844 L 301.210938 205.339844 L 301.210938 235.308594 L 188.710938 235.308594 Z M 188.710938 205.339844 " clip-rule="nonzero"/></clipPath><clipPath id="9c43fae425"><path d="M 0.710938 0.339844 L 113.210938 0.339844 L 113.210938 30.308594 L 0.710938 30.308594 Z M 0.710938 0.339844 " clip-rule="nonzero"/></clipPath><clipPath id="4031362f0b"><rect x="0" width="114" y="0" height="31"/></clipPath><clipPath id="e329448543"><path d="M 1 0.121094 L 28 0.121094 L 28 67 L 1 67 Z M 1 0.121094 " clip-rule="nonzero"/></clipPath><clipPath id="752f2b28e2"><rect x="0" width="207" y="0" height="89"/></clipPath></defs><rect x="-37.5" width="450" fill="#ffffff" y="-37.499999" height="449.999989" fill-opacity="1"/><rect x="-37.5" width="450" fill="#ffffff" y="-37.499999" height="449.999989" fill-opacity="1"/><g clip-path="url(#dd07a6061f)"><g clip-path="url(#939e179c6f)"><g transform="matrix(1, 0, 0, 1, 76, 90)"><g clip-path="url(#f6c85812f5)"><g clip-path="url(#c968da9f22)"><g clip-path="url(#868c5c5e32)"><path fill="#000000" d="M 0.773438 0.378906 L 183.347656 0.378906 L 183.347656 182.953125 L 0.773438 182.953125 Z M 0.773438 0.378906 " fill-opacity="1" fill-rule="nonzero"/></g></g></g></g></g></g><g clip-path="url(#a280a56344)"><g transform="matrix(1, 0, 0, 1, 93, 149)"><g clip-path="url(#706bb5f478)"><g clip-path="url(#998fa9c811)"><path fill="#ffffff" d="M 0.925781 0.785156 L 181.003906 0.785156 L 181.003906 64.546875 L 0.925781 64.546875 Z M 0.925781 0.785156 " fill-opacity="1" fill-rule="nonzero"/></g></g></g></g><g clip-path="url(#cc130d3a24)"><g transform="matrix(1, 0, 0, 1, 188, 205)"><g clip-path="url(#4031362f0b)"><g clip-path="url(#9c43fae425)"><path fill="#ffffff" d="M 0.710938 0.339844 L 113.210938 0.339844 L 113.210938 30.308594 L 0.710938 30.308594 Z M 0.710938 0.339844 " fill-opacity="1" fill-rule="nonzero"/></g></g></g></g><g transform="matrix(1, 0, 0, 1, 93, 135)"><g clip-path="url(#752f2b28e2)"><g clip-path="url(#e329448543)"><g fill="#27488e" fill-opacity="1"><g transform="translate(0.924029, 66.565515)"><g><path d="M 26.046875 -29.234375 C 26.097656 -28.847656 26.125 -28.539062 26.125 -28.3125 C 26.125 -28.09375 26.125 -27.925781 26.125 -27.8125 L 26.125 -9.234375 C 25.957031 -8.335938 25.707031 -7.414062 25.375 -6.46875 C 25.09375 -5.738281 24.613281 -4.898438 23.9375 -3.953125 C 23.320312 -3.054688 22.398438 -2.269531 21.171875 -1.59375 C 20.273438 -1.144531 19.320312 -0.753906 18.3125 -0.421875 C 17.8125 -0.304688 17.265625 -0.207031 16.671875 -0.125 C 16.085938 -0.0390625 15.457031 0 14.78125 0 C 14.84375 0 14.882812 0 14.90625 0 C 14.9375 0 14.953125 0 14.953125 0 L 1.015625 0 L 1.015625 -54.015625 C 1.015625 -54.015625 0.984375 -54.015625 0.921875 -54.015625 C 0.921875 -54.859375 0.921875 -56.078125 0.921875 -57.671875 C 0.921875 -59.273438 0.921875 -60.882812 0.921875 -62.5 C 0.921875 -64.125 0.921875 -65.359375 0.921875 -66.203125 C 5.015625 -65.253906 9.359375 -64.441406 13.953125 -63.765625 C 15.460938 -63.546875 16.941406 -63.363281 18.390625 -63.21875 C 19.847656 -63.082031 21.28125 -62.957031 22.6875 -62.84375 C 22.6875 -62.84375 22.6875 -62.828125 22.6875 -62.796875 C 22.6875 -62.773438 22.6875 -62.765625 22.6875 -62.765625 C 22.6875 -62.765625 22.695312 -62.765625 22.71875 -62.765625 C 22.75 -62.765625 22.765625 -62.765625 22.765625 -62.765625 C 23.097656 -62.367188 23.40625 -61.972656 23.6875 -61.578125 C 23.96875 -61.191406 24.222656 -60.773438 24.453125 -60.328125 C 24.554688 -60.097656 24.632812 -59.828125 24.6875 -59.515625 C 24.75 -59.210938 24.8125 -58.863281 24.875 -58.46875 C 24.976562 -58.082031 25.03125 -57.757812 25.03125 -57.5 C 25.03125 -57.25 25.03125 -57.039062 25.03125 -56.875 L 25.03125 -45.375 C 25.03125 -43.519531 24.359375 -41.695312 23.015625 -39.90625 C 22.347656 -39.125 21.59375 -38.4375 20.75 -37.84375 C 19.90625 -37.257812 18.925781 -36.828125 17.8125 -36.546875 C 20.050781 -36.210938 21.757812 -35.539062 22.9375 -34.53125 C 24.226562 -33.40625 25.097656 -32.203125 25.546875 -30.921875 C 25.765625 -30.523438 25.929688 -29.960938 26.046875 -29.234375 Z M 13.015625 -61.078125 C 12.296875 -61.523438 11.53125 -61.675781 10.71875 -61.53125 C 9.90625 -61.394531 9.078125 -61.101562 8.234375 -60.65625 C 8.234375 -60.601562 8.234375 -60.546875 8.234375 -60.484375 C 8.234375 -60.429688 8.234375 -60.347656 8.234375 -60.234375 L 8.234375 -34.453125 C 8.796875 -34.835938 9.351562 -35.144531 9.90625 -35.375 C 10.695312 -35.707031 11.539062 -36.039062 12.4375 -36.375 C 12.550781 -36.4375 12.734375 -36.507812 12.984375 -36.59375 C 13.234375 -36.675781 13.523438 -36.742188 13.859375 -36.796875 C 14.191406 -36.910156 14.5 -37.035156 14.78125 -37.171875 C 15.0625 -37.316406 15.34375 -37.5 15.625 -37.71875 C 16.1875 -38.28125 16.664062 -38.984375 17.0625 -39.828125 C 17.507812 -40.660156 17.734375 -41.921875 17.734375 -43.609375 L 17.734375 -52.421875 C 17.734375 -52.304688 17.675781 -52.195312 17.5625 -52.09375 C 17.726562 -53.9375 17.40625 -55.679688 16.59375 -57.328125 C 15.78125 -58.984375 14.585938 -60.234375 13.015625 -61.078125 Z M 19.234375 -6.640625 L 19.234375 -30.40625 C 19.015625 -30.800781 18.875 -31.363281 18.8125 -32.09375 C 18.757812 -32.820312 18.34375 -33.519531 17.5625 -34.1875 C 17.28125 -34.46875 17 -34.675781 16.71875 -34.8125 C 16.4375 -34.957031 16.15625 -35.0625 15.875 -35.125 C 15.3125 -35.226562 14.820312 -35.28125 14.40625 -35.28125 C 13.988281 -35.28125 13.613281 -35.226562 13.28125 -35.125 C 12.769531 -35.007812 12.265625 -34.8125 11.765625 -34.53125 C 11.203125 -34.300781 10.640625 -34.0625 10.078125 -33.8125 C 9.515625 -33.5625 9.007812 -33.296875 8.5625 -33.015625 C 8.457031 -32.898438 8.375 -32.84375 8.3125 -32.84375 C 8.257812 -32.789062 8.234375 -32.765625 8.234375 -32.765625 L 8.234375 -6.890625 C 8.234375 -6.660156 8.242188 -6.429688 8.265625 -6.203125 C 8.296875 -5.984375 8.3125 -5.765625 8.3125 -5.546875 C 8.375 -5.316406 8.445312 -5.035156 8.53125 -4.703125 C 8.613281 -4.367188 8.738281 -4.003906 8.90625 -3.609375 C 8.957031 -3.554688 9 -3.515625 9.03125 -3.484375 C 9.0625 -3.453125 9.101562 -3.410156 9.15625 -3.359375 C 9.550781 -2.796875 10.03125 -2.375 10.59375 -2.09375 C 11.820312 -1.59375 13.050781 -1.367188 14.28125 -1.421875 C 15.507812 -1.484375 16.6875 -1.878906 17.8125 -2.609375 C 18.757812 -3.390625 19.234375 -4.734375 19.234375 -6.640625 Z M 15.703125 0 C 15.648438 0 15.566406 0 15.453125 0 C 15.347656 0 15.179688 0 14.953125 0 Z M 15.703125 0 "/></g></g></g></g><g fill="#27488e" fill-opacity="1"><g transform="translate(29.821911, 66.565515)"><g><path d="M 25.125 0.078125 C 24.957031 0.078125 24.785156 0.078125 24.609375 0.078125 C 24.441406 0.078125 24.273438 0.078125 24.109375 0.078125 C 22.148438 0.253906 20.554688 -0.191406 19.328125 -1.265625 C 18.316406 -2.097656 17.726562 -3.132812 17.5625 -4.375 C 17.5 -4.195312 17.398438 -4.007812 17.265625 -3.8125 C 17.128906 -3.625 17.003906 -3.414062 16.890625 -3.1875 C 16.273438 -2.289062 15.179688 -1.425781 13.609375 -0.59375 C 12.492188 0.03125 11.316406 0.34375 10.078125 0.34375 C 10.078125 0.34375 10.0625 0.34375 10.03125 0.34375 C 10.007812 0.34375 9.96875 0.34375 9.90625 0.34375 C 8.625 0.34375 7.617188 0.203125 6.890625 -0.078125 C 4.867188 -0.867188 3.21875 -2.101562 1.9375 -3.78125 C 0.695312 -5.570312 0.0507812 -7.726562 0 -10.25 C -0.0507812 -11.195312 0.03125 -12.375 0.25 -13.78125 C 0.414062 -15.0625 0.976562 -16.320312 1.9375 -17.5625 C 2.101562 -17.726562 2.269531 -17.910156 2.4375 -18.109375 C 2.601562 -18.304688 2.769531 -18.488281 2.9375 -18.65625 C 3.164062 -18.875 3.40625 -19.066406 3.65625 -19.234375 C 3.90625 -19.398438 4.171875 -19.597656 4.453125 -19.828125 C 5.128906 -20.273438 5.941406 -20.722656 6.890625 -21.171875 C 7.390625 -21.453125 7.945312 -21.734375 8.5625 -22.015625 C 9.1875 -22.296875 9.863281 -22.628906 10.59375 -23.015625 C 11.375 -23.460938 12.082031 -23.828125 12.71875 -24.109375 C 13.363281 -24.390625 13.941406 -24.644531 14.453125 -24.875 C 14.898438 -25.09375 15.332031 -25.367188 15.75 -25.703125 C 16.175781 -26.046875 16.613281 -26.410156 17.0625 -26.796875 L 17.0625 -32.9375 C 17.0625 -33.601562 16.890625 -34.109375 16.546875 -34.453125 C 16.378906 -34.722656 16.179688 -34.941406 15.953125 -35.109375 C 15.734375 -35.285156 15.484375 -35.457031 15.203125 -35.625 C 14.984375 -35.789062 14.734375 -35.925781 14.453125 -36.03125 C 14.171875 -36.144531 13.890625 -36.234375 13.609375 -36.296875 C 13.109375 -36.460938 12.660156 -36.546875 12.265625 -36.546875 C 10.753906 -36.546875 9.46875 -36.320312 8.40625 -35.875 C 7.445312 -35.425781 6.800781 -34.953125 6.46875 -34.453125 C 6.300781 -34.273438 6.101562 -33.878906 5.875 -33.265625 C 5.707031 -32.816406 5.707031 -32.453125 5.875 -32.171875 C 5.988281 -32.003906 6.085938 -31.820312 6.171875 -31.625 C 6.253906 -31.4375 6.378906 -31.203125 6.546875 -30.921875 C 6.828125 -30.242188 6.96875 -29.710938 6.96875 -29.328125 C 6.800781 -27.921875 5.9375 -26.96875 4.375 -26.46875 C 3.414062 -26.238281 2.519531 -26.40625 1.6875 -26.96875 C 0.84375 -27.644531 0.335938 -28.257812 0.171875 -28.8125 C 0.00390625 -29.820312 0.285156 -31.03125 1.015625 -32.4375 C 1.734375 -33.78125 3.1875 -35.125 5.375 -36.46875 C 6.4375 -37.195312 7.554688 -37.671875 8.734375 -37.890625 C 10.023438 -38.171875 11.226562 -38.3125 12.34375 -38.3125 C 14.25 -38.3125 15.820312 -38.113281 17.0625 -37.71875 C 18.40625 -37.269531 19.46875 -36.738281 20.25 -36.125 C 20.695312 -35.84375 21.101562 -35.519531 21.46875 -35.15625 C 21.832031 -34.789062 22.125 -34.414062 22.34375 -34.03125 C 22.625 -33.632812 22.847656 -33.253906 23.015625 -32.890625 C 23.179688 -32.523438 23.320312 -32.175781 23.4375 -31.84375 C 23.550781 -31.675781 23.632812 -31.335938 23.6875 -30.828125 C 23.800781 -30.441406 23.882812 -29.941406 23.9375 -29.328125 C 23.9375 -29.097656 23.953125 -28.867188 23.984375 -28.640625 C 24.015625 -28.421875 24.03125 -28.203125 24.03125 -27.984375 C 24.082031 -27.753906 24.109375 -27.566406 24.109375 -27.421875 C 24.109375 -27.285156 24.109375 -27.160156 24.109375 -27.046875 L 24.109375 -3.78125 C 23.992188 -3.445312 24.023438 -3.195312 24.203125 -3.03125 C 24.253906 -2.96875 24.304688 -2.878906 24.359375 -2.765625 C 24.421875 -2.660156 24.503906 -2.550781 24.609375 -2.4375 C 24.785156 -2.269531 24.984375 -2.15625 25.203125 -2.09375 C 25.429688 -2.039062 25.597656 -1.929688 25.703125 -1.765625 C 25.929688 -1.484375 25.988281 -1.203125 25.875 -0.921875 C 25.875 -0.472656 25.625 -0.140625 25.125 0.078125 Z M 17.0625 -7.8125 L 17.0625 -24.703125 C 16.5 -24.140625 15.796875 -23.660156 14.953125 -23.265625 C 14.390625 -22.992188 13.769531 -22.644531 13.09375 -22.21875 C 12.425781 -21.800781 11.703125 -21.335938 10.921875 -20.828125 C 9.628906 -19.992188 8.734375 -18.738281 8.234375 -17.0625 C 7.671875 -15.4375 7.390625 -13.835938 7.390625 -12.265625 L 7.390625 -6.8125 C 7.390625 -5.800781 7.472656 -4.816406 7.640625 -3.859375 C 7.804688 -3.023438 8.367188 -2.382812 9.328125 -1.9375 C 9.890625 -1.59375 10.5625 -1.476562 11.34375 -1.59375 C 11.738281 -1.707031 12.113281 -1.816406 12.46875 -1.921875 C 12.832031 -2.035156 13.15625 -2.207031 13.4375 -2.4375 C 14.332031 -3 15.144531 -3.726562 15.875 -4.625 C 16.664062 -5.519531 17.0625 -6.582031 17.0625 -7.8125 Z M 17.0625 -7.8125 "/></g></g></g><g fill="#27488e" fill-opacity="1"><g transform="translate(57.795732, 66.565515)"><g><path d="M 26.296875 -3.03125 C 26.578125 -2.6875 27.066406 -2.234375 27.765625 -1.671875 C 28.460938 -1.117188 29.035156 -0.898438 29.484375 -1.015625 C 29.265625 -0.953125 29.054688 -0.890625 28.859375 -0.828125 C 28.660156 -0.773438 28.453125 -0.695312 28.234375 -0.59375 C 27.890625 -0.53125 27.507812 -0.457031 27.09375 -0.375 C 26.675781 -0.289062 26.210938 -0.25 25.703125 -0.25 C 23.523438 -0.132812 21.875 -0.613281 20.75 -1.6875 C 19.800781 -2.46875 19.242188 -3.445312 19.078125 -4.625 C 19.015625 -4.457031 18.925781 -4.285156 18.8125 -4.109375 C 18.707031 -3.941406 18.597656 -3.75 18.484375 -3.53125 C 18.203125 -3.132812 17.796875 -2.726562 17.265625 -2.3125 C 16.734375 -1.894531 16.046875 -1.460938 15.203125 -1.015625 C 14.703125 -0.734375 14.195312 -0.519531 13.6875 -0.375 C 13.1875 -0.238281 12.6875 -0.140625 12.1875 -0.078125 L 11.765625 -0.078125 C 11.703125 -0.078125 11.628906 -0.0625 11.546875 -0.03125 C 11.460938 -0.0078125 11.367188 0 11.265625 0 C 11.035156 0 10.8125 -0.0546875 10.59375 -0.171875 C 10.363281 -0.222656 10.164062 -0.265625 10 -0.296875 C 9.832031 -0.328125 9.632812 -0.34375 9.40625 -0.34375 L 9.328125 -0.421875 C 9.097656 -0.535156 8.898438 -0.59375 8.734375 -0.59375 C 8.617188 -0.644531 8.492188 -0.679688 8.359375 -0.703125 C 8.222656 -0.734375 8.097656 -0.78125 7.984375 -0.84375 C 6.410156 -1.507812 5.175781 -2.375 4.28125 -3.4375 C 3.382812 -4.507812 2.742188 -5.492188 2.359375 -6.390625 C 1.960938 -7.335938 1.765625 -8.0625 1.765625 -8.5625 L 1.765625 -36.546875 L 0 -36.546875 L 0 -38.234375 L 11 -38.234375 L 11 -36.546875 L 8.828125 -36.546875 C 8.828125 -36.492188 8.828125 -36.410156 8.828125 -36.296875 C 8.828125 -36.179688 8.828125 -36.066406 8.828125 -35.953125 C 8.828125 -35.117188 8.828125 -34.28125 8.828125 -33.4375 C 8.828125 -32.59375 8.828125 -31.722656 8.828125 -30.828125 C 8.828125 -29.597656 8.828125 -28.378906 8.828125 -27.171875 C 8.828125 -25.972656 8.828125 -24.785156 8.828125 -23.609375 C 8.828125 -22.316406 8.828125 -21.039062 8.828125 -19.78125 C 8.828125 -18.519531 8.828125 -17.25 8.828125 -15.96875 C 8.828125 -14.957031 8.828125 -13.929688 8.828125 -12.890625 C 8.828125 -11.859375 8.828125 -10.835938 8.828125 -9.828125 C 8.828125 -8.929688 8.796875 -8.035156 8.734375 -7.140625 C 8.679688 -6.242188 8.710938 -5.375 8.828125 -4.53125 C 8.878906 -4.3125 8.929688 -4.070312 8.984375 -3.8125 C 9.046875 -3.5625 9.160156 -3.328125 9.328125 -3.109375 C 9.660156 -2.773438 10.109375 -2.46875 10.671875 -2.1875 C 11.234375 -1.851562 11.929688 -1.738281 12.765625 -1.84375 C 13.609375 -1.957031 14.28125 -2.210938 14.78125 -2.609375 C 15.675781 -3.109375 16.546875 -3.890625 17.390625 -4.953125 C 18.234375 -6.078125 18.65625 -7.253906 18.65625 -8.484375 L 18.65625 -36.546875 L 16.71875 -36.546875 L 16.71875 -38.234375 L 27.71875 -38.234375 L 27.71875 -36.546875 L 25.796875 -36.546875 C 25.796875 -36.210938 25.796875 -35.890625 25.796875 -35.578125 C 25.796875 -35.273438 25.796875 -35.125 25.796875 -35.125 C 25.796875 -32.539062 25.796875 -29.988281 25.796875 -27.46875 C 25.796875 -24.945312 25.796875 -22.425781 25.796875 -19.90625 C 25.796875 -18.507812 25.796875 -17.109375 25.796875 -15.703125 C 25.796875 -14.304688 25.796875 -12.910156 25.796875 -11.515625 C 25.796875 -10.953125 25.796875 -10.390625 25.796875 -9.828125 C 25.796875 -9.265625 25.796875 -8.707031 25.796875 -8.15625 C 25.796875 -7.3125 25.765625 -6.425781 25.703125 -5.5 C 25.648438 -4.570312 25.847656 -3.75 26.296875 -3.03125 Z M 26.296875 -3.03125 "/></g></g></g><g fill="#27488e" fill-opacity="1"><g transform="translate(89.801813, 66.565515)"><g><path d="M 26.296875 -1.6875 L 28.234375 -1.6875 L 28.234375 0 L 17.21875 0 L 17.21875 -1.6875 L 19.484375 -1.6875 C 19.378906 -2.019531 19.3125 -2.367188 19.28125 -2.734375 C 19.25 -3.097656 19.234375 -3.503906 19.234375 -3.953125 L 19.234375 -32.765625 C 19.179688 -32.929688 19.125 -33.113281 19.0625 -33.3125 C 19.007812 -33.507812 18.925781 -33.71875 18.8125 -33.9375 C 18.539062 -34.5 18.179688 -35.003906 17.734375 -35.453125 C 17.734375 -35.503906 17.71875 -35.546875 17.6875 -35.578125 C 17.65625 -35.609375 17.640625 -35.625 17.640625 -35.625 C 17.585938 -35.625 17.503906 -35.679688 17.390625 -35.796875 C 16.773438 -36.128906 16.242188 -36.351562 15.796875 -36.46875 C 15.285156 -36.632812 14.863281 -36.71875 14.53125 -36.71875 C 14.082031 -36.71875 13.523438 -36.632812 12.859375 -36.46875 C 12.179688 -36.40625 11.476562 -36.09375 10.75 -35.53125 C 10.1875 -35.03125 9.769531 -34.273438 9.5 -33.265625 C 9.5 -33.210938 9.484375 -33.171875 9.453125 -33.140625 C 9.421875 -33.117188 9.40625 -33.050781 9.40625 -32.9375 C 9.40625 -32.9375 9.390625 -32.9375 9.359375 -32.9375 C 9.335938 -32.9375 9.328125 -32.878906 9.328125 -32.765625 L 9.328125 -1.6875 L 11 -1.6875 L 11 0 L 0 0 L 0 -1.6875 L 2.265625 -1.6875 L 2.265625 -63.4375 L -0.421875 -63.4375 L -0.421875 -65.109375 L 11.9375 -65.109375 L 11.9375 -63.4375 L 9.328125 -63.4375 L 9.328125 -36.203125 C 9.828125 -36.710938 10.414062 -37.132812 11.09375 -37.46875 C 11.988281 -37.914062 12.910156 -38.140625 13.859375 -38.140625 C 14.140625 -38.140625 14.445312 -38.140625 14.78125 -38.140625 C 15.125 -38.140625 15.488281 -38.113281 15.875 -38.0625 C 16.21875 -38.0625 16.523438 -38.046875 16.796875 -38.015625 C 17.078125 -37.984375 17.332031 -37.96875 17.5625 -37.96875 C 20.195312 -37.46875 22.070312 -36.570312 23.1875 -35.28125 C 24.414062 -33.9375 25.226562 -32.734375 25.625 -31.671875 C 26.019531 -31.054688 26.21875 -30.359375 26.21875 -29.578125 L 26.21875 -3.359375 C 26.21875 -3.304688 26.21875 -3.097656 26.21875 -2.734375 C 26.21875 -2.367188 26.242188 -2.019531 26.296875 -1.6875 Z M 26.296875 -1.6875 "/></g></g></g><g fill="#27488e" fill-opacity="1"><g transform="translate(119.707742, 66.565515)"><g><path d="M 25.125 0.078125 C 24.957031 0.078125 24.785156 0.078125 24.609375 0.078125 C 24.441406 0.078125 24.273438 0.078125 24.109375 0.078125 C 22.148438 0.253906 20.554688 -0.191406 19.328125 -1.265625 C 18.316406 -2.097656 17.726562 -3.132812 17.5625 -4.375 C 17.5 -4.195312 17.398438 -4.007812 17.265625 -3.8125 C 17.128906 -3.625 17.003906 -3.414062 16.890625 -3.1875 C 16.273438 -2.289062 15.179688 -1.425781 13.609375 -0.59375 C 12.492188 0.03125 11.316406 0.34375 10.078125 0.34375 C 10.078125 0.34375 10.0625 0.34375 10.03125 0.34375 C 10.007812 0.34375 9.96875 0.34375 9.90625 0.34375 C 8.625 0.34375 7.617188 0.203125 6.890625 -0.078125 C 4.867188 -0.867188 3.21875 -2.101562 1.9375 -3.78125 C 0.695312 -5.570312 0.0507812 -7.726562 0 -10.25 C -0.0507812 -11.195312 0.03125 -12.375 0.25 -13.78125 C 0.414062 -15.0625 0.976562 -16.320312 1.9375 -17.5625 C 2.101562 -17.726562 2.269531 -17.910156 2.4375 -18.109375 C 2.601562 -18.304688 2.769531 -18.488281 2.9375 -18.65625 C 3.164062 -18.875 3.40625 -19.066406 3.65625 -19.234375 C 3.90625 -19.398438 4.171875 -19.597656 4.453125 -19.828125 C 5.128906 -20.273438 5.941406 -20.722656 6.890625 -21.171875 C 7.390625 -21.453125 7.945312 -21.734375 8.5625 -22.015625 C 9.1875 -22.296875 9.863281 -22.628906 10.59375 -23.015625 C 11.375 -23.460938 12.082031 -23.828125 12.71875 -24.109375 C 13.363281 -24.390625 13.941406 -24.644531 14.453125 -24.875 C 14.898438 -25.09375 15.332031 -25.367188 15.75 -25.703125 C 16.175781 -26.046875 16.613281 -26.410156 17.0625 -26.796875 L 17.0625 -32.9375 C 17.0625 -33.601562 16.890625 -34.109375 16.546875 -34.453125 C 16.378906 -34.722656 16.179688 -34.941406 15.953125 -35.109375 C 15.734375 -35.285156 15.484375 -35.457031 15.203125 -35.625 C 14.984375 -35.789062 14.734375 -35.925781 14.453125 -36.03125 C 14.171875 -36.144531 13.890625 -36.234375 13.609375 -36.296875 C 13.109375 -36.460938 12.660156 -36.546875 12.265625 -36.546875 C 10.753906 -36.546875 9.46875 -36.320312 8.40625 -35.875 C 7.445312 -35.425781 6.800781 -34.953125 6.46875 -34.453125 C 6.300781 -34.273438 6.101562 -33.878906 5.875 -33.265625 C 5.707031 -32.816406 5.707031 -32.453125 5.875 -32.171875 C 5.988281 -32.003906 6.085938 -31.820312 6.171875 -31.625 C 6.253906 -31.4375 6.378906 -31.203125 6.546875 -30.921875 C 6.828125 -30.242188 6.96875 -29.710938 6.96875 -29.328125 C 6.800781 -27.921875 5.9375 -26.96875 4.375 -26.46875 C 3.414062 -26.238281 2.519531 -26.40625 1.6875 -26.96875 C 0.84375 -27.644531 0.335938 -28.257812 0.171875 -28.8125 C 0.00390625 -29.820312 0.285156 -31.03125 1.015625 -32.4375 C 1.734375 -33.78125 3.1875 -35.125 5.375 -36.46875 C 6.4375 -37.195312 7.554688 -37.671875 8.734375 -37.890625 C 10.023438 -38.171875 11.226562 -38.3125 12.34375 -38.3125 C 14.25 -38.3125 15.820312 -38.113281 17.0625 -37.71875 C 18.40625 -37.269531 19.46875 -36.738281 20.25 -36.125 C 20.695312 -35.84375 21.101562 -35.519531 21.46875 -35.15625 C 21.832031 -34.789062 22.125 -34.414062 22.34375 -34.03125 C 22.625 -33.632812 22.847656 -33.253906 23.015625 -32.890625 C 23.179688 -32.523438 23.320312 -32.175781 23.4375 -31.84375 C 23.550781 -31.675781 23.632812 -31.335938 23.6875 -30.828125 C 23.800781 -30.441406 23.882812 -29.941406 23.9375 -29.328125 C 23.9375 -29.097656 23.953125 -28.867188 23.984375 -28.640625 C 24.015625 -28.421875 24.03125 -28.203125 24.03125 -27.984375 C 24.082031 -27.753906 24.109375 -27.566406 24.109375 -27.421875 C 24.109375 -27.285156 24.109375 -27.160156 24.109375 -27.046875 L 24.109375 -3.78125 C 23.992188 -3.445312 24.023438 -3.195312 24.203125 -3.03125 C 24.253906 -2.96875 24.304688 -2.878906 24.359375 -2.765625 C 24.421875 -2.660156 24.503906 -2.550781 24.609375 -2.4375 C 24.785156 -2.269531 24.984375 -2.15625 25.203125 -2.09375 C 25.429688 -2.039062 25.597656 -1.929688 25.703125 -1.765625 C 25.929688 -1.484375 25.988281 -1.203125 25.875 -0.921875 C 25.875 -0.472656 25.625 -0.140625 25.125 0.078125 Z M 17.0625 -7.8125 L 17.0625 -24.703125 C 16.5 -24.140625 15.796875 -23.660156 14.953125 -23.265625 C 14.390625 -22.992188 13.769531 -22.644531 13.09375 -22.21875 C 12.425781 -21.800781 11.703125 -21.335938 10.921875 -20.828125 C 9.628906 -19.992188 8.734375 -18.738281 8.234375 -17.0625 C 7.671875 -15.4375 7.390625 -13.835938 7.390625 -12.265625 L 7.390625 -6.8125 C 7.390625 -5.800781 7.472656 -4.816406 7.640625 -3.859375 C 7.804688 -3.023438 8.367188 -2.382812 9.328125 -1.9375 C 9.890625 -1.59375 10.5625 -1.476562 11.34375 -1.59375 C 11.738281 -1.707031 12.113281 -1.816406 12.46875 -1.921875 C 12.832031 -2.035156 13.15625 -2.207031 13.4375 -2.4375 C 14.332031 -3 15.144531 -3.726562 15.875 -4.625 C 16.664062 -5.519531 17.0625 -6.582031 17.0625 -7.8125 Z M 17.0625 -7.8125 "/></g></g></g><g fill="#27488e" fill-opacity="1"><g transform="translate(147.681563, 66.565515)"><g><path d="M 26.296875 -3.03125 C 26.578125 -2.6875 27.066406 -2.234375 27.765625 -1.671875 C 28.460938 -1.117188 29.035156 -0.898438 29.484375 -1.015625 C 29.265625 -0.953125 29.054688 -0.890625 28.859375 -0.828125 C 28.660156 -0.773438 28.453125 -0.695312 28.234375 -0.59375 C 27.890625 -0.53125 27.507812 -0.457031 27.09375 -0.375 C 26.675781 -0.289062 26.210938 -0.25 25.703125 -0.25 C 23.523438 -0.132812 21.875 -0.613281 20.75 -1.6875 C 19.800781 -2.46875 19.242188 -3.445312 19.078125 -4.625 C 19.015625 -4.457031 18.925781 -4.285156 18.8125 -4.109375 C 18.707031 -3.941406 18.597656 -3.75 18.484375 -3.53125 C 18.203125 -3.132812 17.796875 -2.726562 17.265625 -2.3125 C 16.734375 -1.894531 16.046875 -1.460938 15.203125 -1.015625 C 14.703125 -0.734375 14.195312 -0.519531 13.6875 -0.375 C 13.1875 -0.238281 12.6875 -0.140625 12.1875 -0.078125 L 11.765625 -0.078125 C 11.703125 -0.078125 11.628906 -0.0625 11.546875 -0.03125 C 11.460938 -0.0078125 11.367188 0 11.265625 0 C 11.035156 0 10.8125 -0.0546875 10.59375 -0.171875 C 10.363281 -0.222656 10.164062 -0.265625 10 -0.296875 C 9.832031 -0.328125 9.632812 -0.34375 9.40625 -0.34375 L 9.328125 -0.421875 C 9.097656 -0.535156 8.898438 -0.59375 8.734375 -0.59375 C 8.617188 -0.644531 8.492188 -0.679688 8.359375 -0.703125 C 8.222656 -0.734375 8.097656 -0.78125 7.984375 -0.84375 C 6.410156 -1.507812 5.175781 -2.375 4.28125 -3.4375 C 3.382812 -4.507812 2.742188 -5.492188 2.359375 -6.390625 C 1.960938 -7.335938 1.765625 -8.0625 1.765625 -8.5625 L 1.765625 -36.546875 L 0 -36.546875 L 0 -38.234375 L 11 -38.234375 L 11 -36.546875 L 8.828125 -36.546875 C 8.828125 -36.492188 8.828125 -36.410156 8.828125 -36.296875 C 8.828125 -36.179688 8.828125 -36.066406 8.828125 -35.953125 C 8.828125 -35.117188 8.828125 -34.28125 8.828125 -33.4375 C 8.828125 -32.59375 8.828125 -31.722656 8.828125 -30.828125 C 8.828125 -29.597656 8.828125 -28.378906 8.828125 -27.171875 C 8.828125 -25.972656 8.828125 -24.785156 8.828125 -23.609375 C 8.828125 -22.316406 8.828125 -21.039062 8.828125 -19.78125 C 8.828125 -18.519531 8.828125 -17.25 8.828125 -15.96875 C 8.828125 -14.957031 8.828125 -13.929688 8.828125 -12.890625 C 8.828125 -11.859375 8.828125 -10.835938 8.828125 -9.828125 C 8.828125 -8.929688 8.796875 -8.035156 8.734375 -7.140625 C 8.679688 -6.242188 8.710938 -5.375 8.828125 -4.53125 C 8.878906 -4.3125 8.929688 -4.070312 8.984375 -3.8125 C 9.046875 -3.5625 9.160156 -3.328125 9.328125 -3.109375 C 9.660156 -2.773438 10.109375 -2.46875 10.671875 -2.1875 C 11.234375 -1.851562 11.929688 -1.738281 12.765625 -1.84375 C 13.609375 -1.957031 14.28125 -2.210938 14.78125 -2.609375 C 15.675781 -3.109375 16.546875 -3.890625 17.390625 -4.953125 C 18.234375 -6.078125 18.65625 -7.253906 18.65625 -8.484375 L 18.65625 -36.546875 L 16.71875 -36.546875 L 16.71875 -38.234375 L 27.71875 -38.234375 L 27.71875 -36.546875 L 25.796875 -36.546875 C 25.796875 -36.210938 25.796875 -35.890625 25.796875 -35.578125 C 25.796875 -35.273438 25.796875 -35.125 25.796875 -35.125 C 25.796875 -32.539062 25.796875 -29.988281 25.796875 -27.46875 C 25.796875 -24.945312 25.796875 -22.425781 25.796875 -19.90625 C 25.796875 -18.507812 25.796875 -17.109375 25.796875 -15.703125 C 25.796875 -14.304688 25.796875 -12.910156 25.796875 -11.515625 C 25.796875 -10.953125 25.796875 -10.390625 25.796875 -9.828125 C 25.796875 -9.265625 25.796875 -8.707031 25.796875 -8.15625 C 25.796875 -7.3125 25.765625 -6.425781 25.703125 -5.5 C 25.648438 -4.570312 25.847656 -3.75 26.296875 -3.03125 Z M 26.296875 -3.03125 "/></g></g></g><g fill="#27488e" fill-opacity="1"><g transform="translate(179.687644, 66.565515)"><g><path d="M 24.28125 -13.015625 C 24.445312 -12.066406 24.503906 -11.144531 24.453125 -10.25 C 24.453125 -9.125 24.28125 -8.0625 23.9375 -7.0625 C 23.601562 -6.050781 23.101562 -5.039062 22.4375 -4.03125 C 21.757812 -3.019531 20.832031 -2.179688 19.65625 -1.515625 C 18.476562 -0.785156 17.21875 -0.253906 15.875 0.078125 C 14.644531 0.421875 13.414062 0.59375 12.1875 0.59375 C 10.78125 0.59375 9.570312 0.421875 8.5625 0.078125 C 8.007812 -0.0859375 7.492188 -0.253906 7.015625 -0.421875 C 6.535156 -0.585938 6.070312 -0.726562 5.625 -0.84375 L 4.453125 -1.34375 C 3.953125 -1.507812 3.503906 -1.507812 3.109375 -1.34375 C 2.878906 -1.289062 2.679688 -1.066406 2.515625 -0.671875 C 2.515625 -0.453125 2.515625 -0.34375 2.515625 -0.34375 L 2.765625 0 L 0.34375 0 L 0.25 -10.84375 L 3.03125 -10.84375 L 3.03125 -10.671875 C 3.082031 -10.273438 3.160156 -9.820312 3.265625 -9.3125 C 3.378906 -8.8125 3.492188 -8.3125 3.609375 -7.8125 C 3.890625 -6.800781 4.367188 -5.929688 5.046875 -5.203125 C 5.660156 -4.472656 6.554688 -3.691406 7.734375 -2.859375 C 8.960938 -1.960938 10.414062 -1.484375 12.09375 -1.421875 C 14.332031 -1.421875 15.957031 -2.039062 16.96875 -3.28125 C 18.03125 -4.507812 18.644531 -5.710938 18.8125 -6.890625 C 18.988281 -8.285156 18.765625 -9.546875 18.140625 -10.671875 C 17.585938 -11.679688 16.863281 -12.660156 15.96875 -13.609375 C 15.738281 -13.773438 15.484375 -13.984375 15.203125 -14.234375 C 14.921875 -14.492188 14.554688 -14.734375 14.109375 -14.953125 C 13.722656 -15.234375 13.316406 -15.515625 12.890625 -15.796875 C 12.472656 -16.078125 12.039062 -16.328125 11.59375 -16.546875 C 11.144531 -16.828125 10.707031 -17.078125 10.28125 -17.296875 C 9.863281 -17.523438 9.460938 -17.753906 9.078125 -17.984375 C 8.679688 -18.203125 8.359375 -18.378906 8.109375 -18.515625 C 7.859375 -18.660156 7.675781 -18.757812 7.5625 -18.8125 C 7.164062 -19.09375 6.726562 -19.375 6.25 -19.65625 C 5.78125 -19.9375 5.320312 -20.21875 4.875 -20.5 C 4.03125 -21.0625 3.300781 -21.648438 2.6875 -22.265625 C 2.351562 -22.546875 2.046875 -22.867188 1.765625 -23.234375 C 1.484375 -23.597656 1.234375 -23.945312 1.015625 -24.28125 C 0.953125 -24.5 0.847656 -24.765625 0.703125 -25.078125 C 0.566406 -25.390625 0.445312 -25.769531 0.34375 -26.21875 C 0.113281 -26.945312 0 -27.925781 0 -29.15625 C 0 -30.332031 0.195312 -31.476562 0.59375 -32.59375 C 1.039062 -33.769531 1.878906 -34.863281 3.109375 -35.875 C 5.578125 -37.832031 8.378906 -38.726562 11.515625 -38.5625 C 12.910156 -38.5625 14.113281 -38.421875 15.125 -38.140625 C 17.082031 -37.691406 18.660156 -36.722656 19.859375 -35.234375 C 21.066406 -33.753906 21.785156 -32.035156 22.015625 -30.078125 C 22.066406 -29.960938 22.117188 -29.609375 22.171875 -29.015625 C 22.234375 -28.429688 22.265625 -27.859375 22.265625 -27.296875 C 22.265625 -26.742188 22.207031 -26.46875 22.09375 -26.46875 L 19.328125 -26.46875 L 19.328125 -26.71875 C 19.328125 -27.664062 19.253906 -28.601562 19.109375 -29.53125 C 18.972656 -30.457031 18.648438 -31.335938 18.140625 -32.171875 C 17.753906 -32.960938 17.238281 -33.648438 16.59375 -34.234375 C 15.945312 -34.828125 15.234375 -35.347656 14.453125 -35.796875 C 13.492188 -36.460938 12.289062 -36.738281 10.84375 -36.625 C 9.382812 -36.625 8.175781 -36.457031 7.21875 -36.125 C 6.320312 -35.789062 5.625 -35.367188 5.125 -34.859375 C 4.625 -34.359375 4.285156 -33.859375 4.109375 -33.359375 C 3.941406 -32.847656 3.914062 -32.398438 4.03125 -32.015625 C 4.3125 -30.835938 4.957031 -29.742188 5.96875 -28.734375 C 6.53125 -28.171875 7.257812 -27.582031 8.15625 -26.96875 C 9.050781 -26.351562 10.113281 -25.707031 11.34375 -25.03125 C 11.5625 -24.976562 11.828125 -24.867188 12.140625 -24.703125 C 12.453125 -24.535156 12.832031 -24.3125 13.28125 -24.03125 C 13.726562 -23.800781 14.1875 -23.546875 14.65625 -23.265625 C 15.132812 -22.992188 15.625 -22.71875 16.125 -22.4375 C 16.570312 -22.15625 17.046875 -21.875 17.546875 -21.59375 C 18.054688 -21.3125 18.507812 -21.03125 18.90625 -20.75 C 19.351562 -20.414062 19.742188 -20.117188 20.078125 -19.859375 C 20.410156 -19.609375 20.691406 -19.347656 20.921875 -19.078125 C 22.148438 -17.785156 22.960938 -16.71875 23.359375 -15.875 C 23.578125 -15.488281 23.769531 -15.054688 23.9375 -14.578125 C 24.113281 -14.097656 24.226562 -13.578125 24.28125 -13.015625 Z M 24.28125 -13.015625 "/></g></g></g></g></g><g fill="#f68712" fill-opacity="1"><g transform="translate(100.981786, 226.325611)"><g><path d="M 6.125 -13.078125 C 6.945312 -13.078125 7.660156 -12.890625 8.265625 -12.515625 C 8.878906 -12.148438 9.359375 -11.660156 9.703125 -11.046875 C 10.046875 -10.429688 10.21875 -9.753906 10.21875 -9.015625 C 10.21875 -8.285156 10.039062 -7.609375 9.6875 -6.984375 C 9.332031 -6.367188 8.847656 -5.878906 8.234375 -5.515625 C 7.617188 -5.148438 6.914062 -4.96875 6.125 -4.96875 L 2.578125 -4.96875 L 2.578125 0 L 1.21875 0 L 1.21875 -13.078125 Z M 6.125 -6.3125 C 6.675781 -6.3125 7.148438 -6.4375 7.546875 -6.6875 C 7.953125 -6.9375 8.265625 -7.265625 8.484375 -7.671875 C 8.703125 -8.085938 8.8125 -8.535156 8.8125 -9.015625 C 8.8125 -9.503906 8.703125 -9.953125 8.484375 -10.359375 C 8.265625 -10.773438 7.957031 -11.101562 7.5625 -11.34375 C 7.164062 -11.59375 6.6875 -11.71875 6.125 -11.71875 L 2.578125 -11.71875 L 2.578125 -6.3125 Z M 6.125 -6.3125 "/></g></g></g><g fill="#f68712" fill-opacity="1"><g transform="translate(116.759731, 226.325611)"><g><path d="M 10.53125 0 L 8.984375 0 L 6.1875 -4.96875 C 6.164062 -4.96875 6.148438 -4.96875 6.140625 -4.96875 C 6.128906 -4.96875 6.117188 -4.96875 6.109375 -4.96875 L 2.5625 -4.96875 L 2.5625 0 L 1.21875 0 L 1.21875 -13.078125 L 6.109375 -13.078125 C 6.929688 -13.078125 7.648438 -12.890625 8.265625 -12.515625 C 8.878906 -12.148438 9.359375 -11.660156 9.703125 -11.046875 C 10.046875 -10.429688 10.21875 -9.753906 10.21875 -9.015625 C 10.21875 -8.160156 9.976562 -7.382812 9.5 -6.6875 C 9.019531 -6 8.378906 -5.515625 7.578125 -5.234375 Z M 2.5625 -11.71875 L 2.5625 -6.3125 L 6.109375 -6.3125 C 6.671875 -6.3125 7.148438 -6.4375 7.546875 -6.6875 C 7.953125 -6.9375 8.265625 -7.265625 8.484375 -7.671875 C 8.703125 -8.085938 8.8125 -8.535156 8.8125 -9.015625 C 8.8125 -9.503906 8.703125 -9.953125 8.484375 -10.359375 C 8.265625 -10.773438 7.953125 -11.101562 7.546875 -11.34375 C 7.148438 -11.59375 6.671875 -11.71875 6.109375 -11.71875 Z M 2.5625 -11.71875 "/></g></g></g><g fill="#f68712" fill-opacity="1"><g transform="translate(132.631015, 226.325611)"><g><path d="M 7.1875 -13.1875 C 8.113281 -13.1875 8.960938 -13.007812 9.734375 -12.65625 C 10.503906 -12.3125 11.171875 -11.832031 11.734375 -11.21875 C 12.296875 -10.613281 12.734375 -9.90625 13.046875 -9.09375 C 13.359375 -8.289062 13.515625 -7.429688 13.515625 -6.515625 C 13.515625 -5.597656 13.359375 -4.734375 13.046875 -3.921875 C 12.734375 -3.117188 12.296875 -2.410156 11.734375 -1.796875 C 11.171875 -1.191406 10.503906 -0.710938 9.734375 -0.359375 C 8.960938 -0.015625 8.113281 0.15625 7.1875 0.15625 C 6.269531 0.15625 5.421875 -0.015625 4.640625 -0.359375 C 3.867188 -0.710938 3.195312 -1.191406 2.625 -1.796875 C 2.0625 -2.410156 1.625 -3.117188 1.3125 -3.921875 C 1 -4.734375 0.84375 -5.597656 0.84375 -6.515625 C 0.84375 -7.429688 1 -8.289062 1.3125 -9.09375 C 1.625 -9.90625 2.0625 -10.613281 2.625 -11.21875 C 3.195312 -11.832031 3.867188 -12.3125 4.640625 -12.65625 C 5.421875 -13.007812 6.269531 -13.1875 7.1875 -13.1875 Z M 7.1875 -1.171875 C 8.164062 -1.171875 9.023438 -1.410156 9.765625 -1.890625 C 10.515625 -2.367188 11.097656 -3.015625 11.515625 -3.828125 C 11.929688 -4.640625 12.140625 -5.535156 12.140625 -6.515625 C 12.140625 -7.492188 11.929688 -8.390625 11.515625 -9.203125 C 11.097656 -10.015625 10.515625 -10.660156 9.765625 -11.140625 C 9.023438 -11.617188 8.164062 -11.859375 7.1875 -11.859375 C 6.207031 -11.859375 5.34375 -11.617188 4.59375 -11.140625 C 3.84375 -10.660156 3.257812 -10.015625 2.84375 -9.203125 C 2.425781 -8.390625 2.21875 -7.492188 2.21875 -6.515625 C 2.21875 -5.535156 2.425781 -4.640625 2.84375 -3.828125 C 3.257812 -3.015625 3.84375 -2.367188 4.59375 -1.890625 C 5.34375 -1.410156 6.207031 -1.171875 7.1875 -1.171875 Z M 7.1875 -1.171875 "/></g></g></g><g fill="#f68712" fill-opacity="1"><g transform="translate(151.806528, 226.325611)"><g><path d="M 5.234375 -13.078125 C 6.253906 -13.078125 7.164062 -12.90625 7.96875 -12.5625 C 8.78125 -12.21875 9.472656 -11.742188 10.046875 -11.140625 C 10.617188 -10.546875 11.054688 -9.847656 11.359375 -9.046875 C 11.660156 -8.253906 11.8125 -7.410156 11.8125 -6.515625 C 11.8125 -5.617188 11.65625 -4.773438 11.34375 -3.984375 C 11.039062 -3.191406 10.601562 -2.5 10.03125 -1.90625 C 9.457031 -1.3125 8.765625 -0.84375 7.953125 -0.5 C 7.140625 -0.164062 6.234375 0 5.234375 0 L 1.21875 0 L 1.21875 -13.078125 Z M 5.109375 -1.34375 C 6.234375 -1.34375 7.1875 -1.578125 7.96875 -2.046875 C 8.757812 -2.515625 9.359375 -3.140625 9.765625 -3.921875 C 10.171875 -4.703125 10.375 -5.566406 10.375 -6.515625 C 10.375 -7.472656 10.160156 -8.347656 9.734375 -9.140625 C 9.316406 -9.929688 8.71875 -10.554688 7.9375 -11.015625 C 7.15625 -11.484375 6.222656 -11.71875 5.140625 -11.71875 L 2.5625 -11.71875 L 2.5625 -1.34375 C 2.8125 -1.34375 3.140625 -1.34375 3.546875 -1.34375 C 3.953125 -1.34375 4.472656 -1.34375 5.109375 -1.34375 Z M 5.109375 -1.34375 "/></g></g></g><g fill="#f68712" fill-opacity="1"><g transform="translate(169.189919, 226.325611)"><g><path d="M 9.484375 -13.078125 L 10.828125 -13.078125 C 10.828125 -13.078125 10.828125 -12.894531 10.828125 -12.53125 C 10.828125 -12.164062 10.828125 -11.6875 10.828125 -11.09375 C 10.828125 -10.507812 10.828125 -9.867188 10.828125 -9.171875 C 10.828125 -8.472656 10.828125 -7.78125 10.828125 -7.09375 C 10.828125 -6.40625 10.828125 -5.789062 10.828125 -5.25 C 10.828125 -4.007812 10.613281 -2.992188 10.1875 -2.203125 C 9.769531 -1.410156 9.195312 -0.816406 8.46875 -0.421875 C 7.738281 -0.0351562 6.925781 0.15625 6.03125 0.15625 C 5.132812 0.15625 4.316406 -0.03125 3.578125 -0.40625 C 2.835938 -0.78125 2.242188 -1.359375 1.796875 -2.140625 C 1.347656 -2.929688 1.125 -3.945312 1.125 -5.1875 C 1.125 -5.726562 1.125 -6.34375 1.125 -7.03125 C 1.125 -7.71875 1.125 -8.410156 1.125 -9.109375 C 1.125 -9.816406 1.125 -10.46875 1.125 -11.0625 C 1.125 -11.664062 1.125 -12.148438 1.125 -12.515625 C 1.125 -12.890625 1.125 -13.078125 1.125 -13.078125 L 2.46875 -13.078125 C 2.46875 -13.078125 2.46875 -12.925781 2.46875 -12.625 C 2.46875 -12.332031 2.46875 -11.945312 2.46875 -11.46875 C 2.46875 -10.988281 2.46875 -10.457031 2.46875 -9.875 C 2.46875 -9.289062 2.46875 -8.695312 2.46875 -8.09375 C 2.46875 -7.5 2.46875 -6.941406 2.46875 -6.421875 C 2.46875 -5.910156 2.46875 -5.484375 2.46875 -5.140625 C 2.46875 -4.265625 2.628906 -3.535156 2.953125 -2.953125 C 3.273438 -2.367188 3.707031 -1.925781 4.25 -1.625 C 4.789062 -1.332031 5.382812 -1.1875 6.03125 -1.1875 C 6.675781 -1.1875 7.257812 -1.335938 7.78125 -1.640625 C 8.3125 -1.941406 8.726562 -2.382812 9.03125 -2.96875 C 9.332031 -3.5625 9.484375 -4.285156 9.484375 -5.140625 C 9.484375 -5.617188 9.484375 -6.191406 9.484375 -6.859375 C 9.484375 -7.535156 9.484375 -8.234375 9.484375 -8.953125 C 9.484375 -9.679688 9.484375 -10.351562 9.484375 -10.96875 C 9.484375 -11.59375 9.484375 -12.097656 9.484375 -12.484375 C 9.484375 -12.878906 9.484375 -13.078125 9.484375 -13.078125 Z M 9.484375 -13.078125 "/></g></g></g><g fill="#f68712" fill-opacity="1"><g transform="translate(185.957263, 226.325611)"><g><path d="M 7.28125 -1.171875 C 8.175781 -1.171875 8.988281 -1.375 9.71875 -1.78125 C 10.445312 -2.195312 11.035156 -2.75 11.484375 -3.4375 L 12.671875 -2.84375 C 12.117188 -1.945312 11.367188 -1.222656 10.421875 -0.671875 C 9.484375 -0.117188 8.4375 0.15625 7.28125 0.15625 C 6.363281 0.15625 5.507812 -0.015625 4.71875 -0.359375 C 3.9375 -0.710938 3.253906 -1.191406 2.671875 -1.796875 C 2.097656 -2.410156 1.648438 -3.117188 1.328125 -3.921875 C 1.003906 -4.734375 0.84375 -5.597656 0.84375 -6.515625 C 0.84375 -7.429688 1.003906 -8.289062 1.328125 -9.09375 C 1.648438 -9.90625 2.097656 -10.613281 2.671875 -11.21875 C 3.253906 -11.832031 3.9375 -12.3125 4.71875 -12.65625 C 5.507812 -13.007812 6.363281 -13.1875 7.28125 -13.1875 C 8.4375 -13.1875 9.484375 -12.914062 10.421875 -12.375 C 11.367188 -11.832031 12.117188 -11.101562 12.671875 -10.1875 L 11.484375 -9.609375 C 11.035156 -10.285156 10.445312 -10.828125 9.71875 -11.234375 C 8.988281 -11.648438 8.175781 -11.859375 7.28125 -11.859375 C 6.300781 -11.859375 5.429688 -11.617188 4.671875 -11.140625 C 3.910156 -10.660156 3.3125 -10.015625 2.875 -9.203125 C 2.4375 -8.390625 2.21875 -7.492188 2.21875 -6.515625 C 2.21875 -5.535156 2.4375 -4.640625 2.875 -3.828125 C 3.3125 -3.015625 3.910156 -2.367188 4.671875 -1.890625 C 5.429688 -1.410156 6.300781 -1.171875 7.28125 -1.171875 Z M 7.28125 -1.171875 "/></g></g></g><g fill="#f68712" fill-opacity="1"><g transform="translate(204.012698, 226.325611)"><g><path d="M 9.84375 -13.078125 L 9.84375 -11.71875 L 5.78125 -11.71875 L 5.78125 0 L 4.4375 0 L 4.4375 -11.71875 L 0.375 -11.71875 L 0.375 -13.078125 Z M 9.84375 -13.078125 "/></g></g></g><g fill="#f68712" fill-opacity="1"><g transform="translate(219.043916, 226.325611)"><g><path d="M 1.21875 -13.078125 L 2.5625 -13.078125 L 2.5625 0 L 1.21875 0 Z M 1.21875 -13.078125 "/></g></g></g><g fill="#f68712" fill-opacity="1"><g transform="translate(227.634675, 226.325611)"><g><path d="M 7.1875 -13.1875 C 8.113281 -13.1875 8.960938 -13.007812 9.734375 -12.65625 C 10.503906 -12.3125 11.171875 -11.832031 11.734375 -11.21875 C 12.296875 -10.613281 12.734375 -9.90625 13.046875 -9.09375 C 13.359375 -8.289062 13.515625 -7.429688 13.515625 -6.515625 C 13.515625 -5.597656 13.359375 -4.734375 13.046875 -3.921875 C 12.734375 -3.117188 12.296875 -2.410156 11.734375 -1.796875 C 11.171875 -1.191406 10.503906 -0.710938 9.734375 -0.359375 C 8.960938 -0.015625 8.113281 0.15625 7.1875 0.15625 C 6.269531 0.15625 5.421875 -0.015625 4.640625 -0.359375 C 3.867188 -0.710938 3.195312 -1.191406 2.625 -1.796875 C 2.0625 -2.410156 1.625 -3.117188 1.3125 -3.921875 C 1 -4.734375 0.84375 -5.597656 0.84375 -6.515625 C 0.84375 -7.429688 1 -8.289062 1.3125 -9.09375 C 1.625 -9.90625 2.0625 -10.613281 2.625 -11.21875 C 3.195312 -11.832031 3.867188 -12.3125 4.640625 -12.65625 C 5.421875 -13.007812 6.269531 -13.1875 7.1875 -13.1875 Z M 7.1875 -1.171875 C 8.164062 -1.171875 9.023438 -1.410156 9.765625 -1.890625 C 10.515625 -2.367188 11.097656 -3.015625 11.515625 -3.828125 C 11.929688 -4.640625 12.140625 -5.535156 12.140625 -6.515625 C 12.140625 -7.492188 11.929688 -8.390625 11.515625 -9.203125 C 11.097656 -10.015625 10.515625 -10.660156 9.765625 -11.140625 C 9.023438 -11.617188 8.164062 -11.859375 7.1875 -11.859375 C 6.207031 -11.859375 5.34375 -11.617188 4.59375 -11.140625 C 3.84375 -10.660156 3.257812 -10.015625 2.84375 -9.203125 C 2.425781 -8.390625 2.21875 -7.492188 2.21875 -6.515625 C 2.21875 -5.535156 2.425781 -4.640625 2.84375 -3.828125 C 3.257812 -3.015625 3.84375 -2.367188 4.59375 -1.890625 C 5.34375 -1.410156 6.207031 -1.171875 7.1875 -1.171875 Z M 7.1875 -1.171875 "/></g></g></g><g fill="#f68712" fill-opacity="1"><g transform="translate(246.810188, 226.325611)"><g><path d="M 9.796875 -13.078125 L 11.140625 -13.078125 L 11.140625 0 L 9.921875 0 L 2.5625 -10.609375 L 2.5625 0 L 1.21875 0 L 1.21875 -13.078125 L 2.453125 -13.078125 L 9.796875 -2.5 Z M 9.796875 -13.078125 "/></g></g></g></svg>