<?xml version="1.0" encoding="UTF-8"?>
<!DOCTYPE svg PUBLIC "-//W3C//DTD SVG 1.1//EN" "http://www.w3.org/Graphics/SVG/1.1/DTD/svg11.dtd">
<svg xmlns="http://www.w3.org/2000/svg" version="1.1" width="500px" height="500px" style="shape-rendering:geometricPrecision; text-rendering:geometricPrecision; image-rendering:optimizeQuality; fill-rule:evenodd; clip-rule:evenodd" xmlns:xlink="http://www.w3.org/1999/xlink">
<g><path style="opacity:1" fill="#e04243" d="M 234.5,120.5 C 227.492,120.334 220.492,120.5 213.5,121C 203.282,122.013 193.282,124.18 183.5,127.5C 182.584,127.457 181.917,127.124 181.5,126.5C 198.883,120.617 216.55,118.617 234.5,120.5 Z"/></g>
<g><path style="opacity:1" fill="#da3e3e" d="M 235.5,120.5 C 242.843,120.666 249.843,121.999 256.5,124.5C 255.833,124.5 255.167,124.5 254.5,124.5C 247.806,123.649 241.473,122.315 235.5,120.5 Z"/></g>
<g><path style="opacity:1" fill="#fd3131" d="M 234.5,120.5 C 234.833,120.5 235.167,120.5 235.5,120.5C 241.473,122.315 247.806,123.649 254.5,124.5C 253.134,127.858 251.301,128.525 249,126.5C 246.184,127.13 243.518,126.464 241,124.5C 240.283,125.044 239.783,125.711 239.5,126.5C 220.846,125.326 202.679,127.326 185,132.5C 182.599,131.601 181.099,129.934 180.5,127.5C 180.5,126.833 180.833,126.5 181.5,126.5C 181.917,127.124 182.584,127.457 183.5,127.5C 193.282,124.18 203.282,122.013 213.5,121C 220.492,120.5 227.492,120.334 234.5,120.5 Z"/></g>
<g><path style="opacity:1" fill="#e53d3c" d="M 239.5,126.5 C 242.691,127.72 246.025,128.553 249.5,129C 250.056,129.383 250.389,129.883 250.5,130.5C 219.661,124.07 190.661,128.736 163.5,144.5C 163.953,143.542 164.619,142.708 165.5,142C 162.721,141.851 162.221,141.017 164,139.5C 165.726,140.576 167.559,140.743 169.5,140C 169.043,139.586 168.709,139.086 168.5,138.5C 170.766,137.686 173.1,137.186 175.5,137C 177.223,136.477 178.556,135.477 179.5,134C 179.095,133.055 178.428,132.388 177.5,132C 180.121,131.094 179.954,130.594 177,130.5C 176.167,130.667 175.333,130.833 174.5,131C 175.451,131.718 175.617,132.551 175,133.5C 173.301,132.594 171.467,132.261 169.5,132.5C 172.74,130.049 176.407,128.382 180.5,127.5C 181.099,129.934 182.599,131.601 185,132.5C 202.679,127.326 220.846,125.326 239.5,126.5 Z"/></g>
<g><path style="opacity:1" fill="#f33635" d="M 254.5,124.5 C 255.167,124.5 255.833,124.5 256.5,124.5C 290.049,133.869 315.216,153.869 332,184.5C 333.799,188.07 335.299,191.737 336.5,195.5C 336.5,196.5 336.5,197.5 336.5,198.5C 334.473,198.662 332.473,198.495 330.5,198C 329.717,195.882 328.384,194.382 326.5,193.5C 310.538,161.187 285.205,140.187 250.5,130.5C 250.389,129.883 250.056,129.383 249.5,129C 246.025,128.553 242.691,127.72 239.5,126.5C 239.783,125.711 240.283,125.044 241,124.5C 243.518,126.464 246.184,127.13 249,126.5C 251.301,128.525 253.134,127.858 254.5,124.5 Z"/></g>
<g><path style="opacity:1" fill="#fdd527" d="M 256.5,271.5 C 256.833,271.5 257.167,271.5 257.5,271.5C 255.603,272.805 253.269,273.471 250.5,273.5C 248.167,273.333 245.833,273.167 243.5,273C 244.056,272.617 244.389,272.117 244.5,271.5C 245.833,244.5 245.833,217.5 244.5,190.5C 246.223,189.2 248.39,188.533 251,188.5C 253.167,188.667 255.333,188.833 257.5,189C 256.584,189.374 255.75,189.874 255,190.5C 254.664,217.672 255.164,244.672 256.5,271.5 Z"/></g>
<g><path style="opacity:1" fill="#eccf4e" d="M 275.5,229.5 C 274.373,228.878 273.373,228.045 272.5,227C 271.056,226.219 269.723,226.386 268.5,227.5C 269.824,242.294 269.824,256.961 268.5,271.5C 268.667,257.496 268.5,243.496 268,229.5C 264.721,224.69 261.055,224.356 257,228.5C 256.5,242.829 256.333,257.163 256.5,271.5C 255.164,244.672 254.664,217.672 255,190.5C 255.75,189.874 256.584,189.374 257.5,189C 255.333,188.833 253.167,188.667 251,188.5C 248.39,188.533 246.223,189.2 244.5,190.5C 242.952,190.179 242.285,189.179 242.5,187.5C 248.167,187.5 253.833,187.5 259.5,187.5C 259.5,188.5 259.5,189.5 259.5,190.5C 258.5,190.5 257.5,190.5 256.5,190.5C 256.168,201.853 256.501,213.186 257.5,224.5C 263.015,222.951 268.349,223.451 273.5,226C 274.823,226.816 275.489,227.983 275.5,229.5 Z"/></g>
<g><path style="opacity:1" fill="#f53634" d="M 163.5,144.5 C 141.917,158.691 126.251,177.691 116.5,201.5C 114.574,203.617 113.24,206.117 112.5,209C 111.056,213.721 110.389,218.554 110.5,223.5C 109.024,230.61 108.357,237.943 108.5,245.5C 108.298,252.192 108.964,258.692 110.5,265C 110.42,266.894 110.087,268.727 109.5,270.5C 112.134,271.807 113.8,273.807 114.5,276.5C 114.945,279.365 114.278,281.865 112.5,284C 112.847,285.569 113.014,287.402 113,289.5C 112.292,288.619 111.458,287.953 110.5,287.5C 93.6984,242.258 100.198,200.592 130,162.5C 141.075,149.572 154.241,139.572 169.5,132.5C 171.467,132.261 173.301,132.594 175,133.5C 175.617,132.551 175.451,131.718 174.5,131C 175.333,130.833 176.167,130.667 177,130.5C 179.954,130.594 180.121,131.094 177.5,132C 178.428,132.388 179.095,133.055 179.5,134C 178.556,135.477 177.223,136.477 175.5,137C 173.1,137.186 170.766,137.686 168.5,138.5C 168.709,139.086 169.043,139.586 169.5,140C 167.559,140.743 165.726,140.576 164,139.5C 162.221,141.017 162.721,141.851 165.5,142C 164.619,142.708 163.953,143.542 163.5,144.5 Z"/></g>
<g><path style="opacity:0.767" fill="#d34240" d="M 326.5,193.5 C 328.384,194.382 329.717,195.882 330.5,198C 332.473,198.495 334.473,198.662 336.5,198.5C 336.5,197.5 336.5,196.5 336.5,195.5C 337.249,196.531 337.915,197.698 338.5,199C 332.42,201.101 328.42,199.267 326.5,193.5 Z"/></g>
<g><path style="opacity:1" fill="#fdd426" d="M 126.5,188.5 C 129.187,188.336 131.854,188.503 134.5,189C 136.037,190.11 136.703,191.61 136.5,193.5C 136.172,205.012 136.505,216.346 137.5,227.5C 137.5,228.167 137.5,228.833 137.5,229.5C 137.5,230.167 137.167,230.5 136.5,230.5C 135.17,244.235 135.17,258.069 136.5,272C 133.183,272.498 129.85,272.665 126.5,272.5C 126.5,244.5 126.5,216.5 126.5,188.5 Z"/></g>
<g><path style="opacity:1" fill="#db4641" d="M 116.5,201.5 C 114.26,208.869 112.26,216.202 110.5,223.5C 110.389,218.554 111.056,213.721 112.5,209C 113.24,206.117 114.574,203.617 116.5,201.5 Z"/></g>
<g><path style="opacity:1" fill="#eed045" d="M 156.5,192.5 C 157.222,192.918 157.722,193.584 158,194.5C 158.667,202.167 158.667,209.833 158,217.5C 157.303,219.584 156.136,221.251 154.5,222.5C 156.285,212.625 156.951,202.625 156.5,192.5 Z"/></g>
<g><path style="opacity:1" fill="#f3d53f" d="M 368.5,231.5 C 368.565,231.938 368.399,232.272 368,232.5C 367.29,231.027 366.124,230.36 364.5,230.5C 364.294,234.898 364.627,239.232 365.5,243.5C 360.009,233.173 363.009,226.34 374.5,223C 386.861,221.527 393.195,227.027 393.5,239.5C 391.833,239.5 390.167,239.5 388.5,239.5C 387.996,229.163 382.662,224.997 372.5,227C 370.249,227.748 368.916,229.248 368.5,231.5 Z"/></g>
<g><path style="opacity:1" fill="#f6d435" d="M 313.5,230.5 C 312.089,229.092 310.423,228.092 308.5,227.5C 306.962,227.453 305.962,228.12 305.5,229.5C 301.99,226.167 297.99,225.667 293.5,228C 292.426,228.739 291.759,229.739 291.5,231C 293.951,237.203 291.951,239.87 285.5,239C 282.212,236.232 282.045,233.066 285,229.5C 292.708,222.956 301.208,221.789 310.5,226C 312.141,227.129 313.141,228.629 313.5,230.5 Z"/></g>
<g><path style="opacity:1" fill="#fad326" d="M 334.5,226.5 C 332.52,238.455 331.854,250.788 332.5,263.5C 330.824,264.183 330.157,265.517 330.5,267.5C 328.435,267.517 326.435,267.85 324.5,268.5C 324.5,268.167 324.5,267.833 324.5,267.5C 324.218,253.131 324.551,238.797 325.5,224.5C 329.012,223.945 332.012,224.612 334.5,226.5 Z"/></g>
<g><path style="opacity:1" fill="#fad32a" d="M 212.5,226.5 C 212.5,240.833 212.5,255.167 212.5,269.5C 212.414,270.496 212.748,271.329 213.5,272C 212.207,272.49 210.873,272.657 209.5,272.5C 206.909,271.746 205.076,270.079 204,267.5C 202.872,265.655 202.372,263.655 202.5,261.5C 203.83,249.431 203.83,237.265 202.5,225C 206.5,224.333 210.5,224.333 214.5,225C 213.584,225.278 212.918,225.778 212.5,226.5 Z"/></g>
<g><path style="opacity:1" fill="#fad42b" d="M 156.5,192.5 C 156.951,202.625 156.285,212.625 154.5,222.5C 153.77,223.712 152.77,224.712 151.5,225.5C 154.805,226.972 157.305,229.305 159,232.5C 159.667,243.5 159.667,254.5 159,265.5C 158.303,267.584 157.136,269.251 155.5,270.5C 153.856,270.286 152.356,270.62 151,271.5C 150.817,268.635 150.317,265.969 149.5,263.5C 149.177,255.789 149.51,247.956 150.5,240C 151.438,229.413 147.105,225.913 137.5,229.5C 137.5,228.833 137.5,228.167 137.5,227.5C 140.291,226.281 143.124,224.948 146,223.5C 148.325,215.581 148.659,207.581 147,199.5C 145.039,194.443 141.539,192.443 136.5,193.5C 136.703,191.61 136.037,190.11 134.5,189C 131.854,188.503 129.187,188.336 126.5,188.5C 126.5,187.5 126.5,186.5 126.5,185.5C 126.435,185.062 126.601,184.728 127,184.5C 127.605,186.481 128.605,186.815 130,185.5C 136.899,188.013 144.066,189.513 151.5,190C 153.653,190.099 155.319,190.933 156.5,192.5 Z"/></g>
<g><path style="opacity:1" fill="#fdd51f" d="M 345.5,267.5 C 345.829,253.99 345.496,240.656 344.5,227.5C 344.5,227.167 344.5,226.833 344.5,226.5C 346.048,225.206 348.048,224.539 350.5,224.5C 352.5,224.667 354.5,224.833 356.5,225C 355.184,232.599 354.517,240.432 354.5,248.5C 354.508,256.409 354.841,264.243 355.5,272C 353.5,272.667 351.5,272.667 349.5,272C 349.957,271.586 350.291,271.086 350.5,270.5C 348.345,269.999 346.678,268.999 345.5,267.5 Z"/></g>
<g><path style="opacity:1" fill="#f4d136" d="M 194.5,231.5 C 192.135,229.14 189.468,227.14 186.5,225.5C 186.719,230.178 186.385,234.844 185.5,239.5C 188.568,229.087 184.902,224.92 174.5,227C 171.374,229.047 170.707,231.713 172.5,235C 171.841,239.082 169.508,240.416 165.5,239C 162.75,235.136 163.084,231.469 166.5,228C 174.098,222.851 182.098,222.185 190.5,226C 192.464,227.451 193.797,229.284 194.5,231.5 Z"/></g>
<g><path style="opacity:1" fill="#fdd521" d="M 235.5,226.5 C 234.504,241.658 234.17,256.991 234.5,272.5C 230,272.511 227,270.344 225.5,266C 226.814,252.693 226.814,239.527 225.5,226.5C 224.5,226.5 223.5,226.5 222.5,226.5C 222.5,225.5 222.5,224.5 222.5,223.5C 227.5,223.5 232.5,223.5 237.5,223.5C 237.715,225.179 237.048,226.179 235.5,226.5 Z"/></g>
<g><path style="opacity:1" fill="#efcd44" d="M 334.5,226.5 C 332.012,224.612 329.012,223.945 325.5,224.5C 324.551,238.797 324.218,253.131 324.5,267.5C 323.778,267.082 323.278,266.416 323,265.5C 322.833,252.487 322.333,239.487 321.5,226.5C 320.5,226.167 319.833,225.5 319.5,224.5C 324.792,223.505 330.125,223.172 335.5,223.5C 335.737,224.791 335.404,225.791 334.5,226.5 Z"/></g>
<g><path style="opacity:1" fill="#fdd41f" d="M 194.5,231.5 C 194.5,231.833 194.5,232.167 194.5,232.5C 194.667,245.504 194.5,258.504 194,271.5C 192.644,272.38 191.144,272.714 189.5,272.5C 189.799,270.396 189.466,268.396 188.5,266.5C 187.914,266.709 187.414,267.043 187,267.5C 186.829,259.323 186.329,251.323 185.5,243.5C 185.5,243.167 185.5,242.833 185.5,242.5C 184.89,241.609 184.557,240.609 184.5,239.5C 184.833,239.5 185.167,239.5 185.5,239.5C 186.385,234.844 186.719,230.178 186.5,225.5C 189.468,227.14 192.135,229.14 194.5,231.5 Z"/></g>
<g><path style="opacity:0.612" fill="#e3c855" d="M 212.5,226.5 C 212.918,225.778 213.584,225.278 214.5,225C 210.5,224.333 206.5,224.333 202.5,225C 203.83,237.265 203.83,249.431 202.5,261.5C 203.044,248.693 202.377,236.026 200.5,223.5C 205.5,223.5 210.5,223.5 215.5,223.5C 215.5,224.5 215.5,225.5 215.5,226.5C 214.5,226.5 213.5,226.5 212.5,226.5 Z"/></g>
<g><path style="opacity:1" fill="#fdd421" d="M 313.5,230.5 C 314.421,243.137 314.754,255.803 314.5,268.5C 311.315,268.722 310.315,270.222 311.5,273C 310.906,273.464 310.239,273.631 309.5,273.5C 308.5,273.167 307.833,272.5 307.5,271.5C 306.909,261.69 306.242,252.023 305.5,242.5C 306.662,238.02 306.662,233.687 305.5,229.5C 305.962,228.12 306.962,227.453 308.5,227.5C 310.423,228.092 312.089,229.092 313.5,230.5 Z"/></g>
<g><path style="opacity:1" fill="#f2d240" d="M 184.5,239.5 C 184.557,240.609 184.89,241.609 185.5,242.5C 179.555,244.759 175.555,248.759 173.5,254.5C 173.5,252.833 173.5,251.167 173.5,249.5C 171.801,249.34 170.134,249.506 168.5,250C 167.295,251.376 165.962,252.542 164.5,253.5C 165.203,251.284 166.536,249.451 168.5,248C 174.019,245.409 179.352,242.575 184.5,239.5 Z"/></g>
<g><path style="opacity:1" fill="#e0413c" d="M 110.5,223.5 C 108.478,241.434 109.811,259.101 114.5,276.5C 113.8,273.807 112.134,271.807 109.5,270.5C 110.087,268.727 110.42,266.894 110.5,265C 108.964,258.692 108.298,252.192 108.5,245.5C 108.357,237.943 109.024,230.61 110.5,223.5 Z"/></g>
<g><path style="opacity:0.12" fill="#ebd661" d="M 344.5,227.5 C 345.496,240.656 345.829,253.99 345.5,267.5C 344.5,268.167 343.5,268.833 342.5,269.5C 342.461,268.244 342.961,267.244 344,266.5C 344.5,253.504 344.667,240.504 344.5,227.5 Z"/></g>
<g><path style="opacity:1" fill="#fad42b" d="M 368.5,231.5 C 373.745,237.988 380.411,242.821 388.5,246C 397.474,253.856 398.474,262.523 391.5,272C 384.936,275.893 378.269,276.393 371.5,273.5C 369.393,272.532 367.059,272.198 364.5,272.5C 364.176,268.445 364.509,264.445 365.5,260.5C 366.001,262.655 367.001,264.322 368.5,265.5C 372.409,271.414 377.742,273.248 384.5,271C 388.584,265.797 388.251,260.797 383.5,256C 376.91,252.55 370.91,248.384 365.5,243.5C 364.627,239.232 364.294,234.898 364.5,230.5C 366.124,230.36 367.29,231.027 368,232.5C 368.399,232.272 368.565,231.938 368.5,231.5 Z"/></g>
<g><path style="opacity:1" fill="#fcd51e" d="M 173.5,254.5 C 172.511,259.975 172.178,265.642 172.5,271.5C 171.167,271.5 169.833,271.5 168.5,271.5C 168.007,269.194 167.674,266.861 167.5,264.5C 166.5,264.5 165.5,264.5 164.5,264.5C 164.5,260.833 164.5,257.167 164.5,253.5C 165.962,252.542 167.295,251.376 168.5,250C 170.134,249.506 171.801,249.34 173.5,249.5C 173.5,251.167 173.5,252.833 173.5,254.5 Z"/></g>
<g><path style="opacity:1" fill="#f5d134" d="M 305.5,229.5 C 306.662,233.687 306.662,238.02 305.5,242.5C 306.242,252.023 306.909,261.69 307.5,271.5C 305.9,270.488 304.566,270.988 303.5,273C 291.079,277.617 284.079,273.284 282.5,260C 282.64,255.054 284.64,251.054 288.5,248C 294.114,244.946 299.614,241.779 305,238.5C 305.498,235.518 305.665,232.518 305.5,229.5 Z M 305.5,242.5 C 305.666,250.507 305.5,258.507 305,266.5C 302.774,270.861 299.274,272.361 294.5,271C 293.097,264.164 293.264,257.331 295,250.5C 297.823,246.999 301.323,244.332 305.5,242.5 Z"/></g>
<g><path style="opacity:1" fill="#edd14a" d="M 368.5,265.5 C 367.001,264.322 366.001,262.655 365.5,260.5C 364.509,264.445 364.176,268.445 364.5,272.5C 367.059,272.198 369.393,272.532 371.5,273.5C 368.794,273.575 366.127,273.908 363.5,274.5C 363.8,269.901 363.467,265.401 362.5,261C 363.905,259.731 365.571,259.231 367.5,259.5C 367.833,261.5 368.167,263.5 368.5,265.5 Z"/></g>
<g><path style="opacity:1" fill="#edcd3a" d="M 313.5,230.5 C 314.268,231.263 314.768,232.263 315,233.5C 315.333,245.833 315.667,258.167 316,270.5C 319.198,273.527 318.365,274.86 313.5,274.5C 311.955,274.489 310.622,274.156 309.5,273.5C 310.239,273.631 310.906,273.464 311.5,273C 310.315,270.222 311.315,268.722 314.5,268.5C 314.754,255.803 314.421,243.137 313.5,230.5 Z"/></g>
<g><path style="opacity:1" fill="#f9d22c" d="M 275.5,229.5 C 276.79,230.058 277.623,231.058 278,232.5C 277.848,245.872 278.682,258.872 280.5,271.5C 278.603,272.805 276.269,273.471 273.5,273.5C 270.731,273.471 268.397,272.805 266.5,271.5C 267.167,271.5 267.833,271.5 268.5,271.5C 269.824,256.961 269.824,242.294 268.5,227.5C 269.723,226.386 271.056,226.219 272.5,227C 273.373,228.045 274.373,228.878 275.5,229.5 Z"/></g>
<g><path style="opacity:1" fill="#ecce4a" d="M 126.5,185.5 C 126.5,186.5 126.5,187.5 126.5,188.5C 126.5,216.5 126.5,244.5 126.5,272.5C 129.85,272.665 133.183,272.498 136.5,272C 135.17,258.069 135.17,244.235 136.5,230.5C 136.333,243.504 136.5,256.504 137,269.5C 141,273.5 145,273.5 149,269.5C 149.495,267.527 149.662,265.527 149.5,263.5C 150.317,265.969 150.817,268.635 151,271.5C 152.356,270.62 153.856,270.286 155.5,270.5C 154.025,272.41 152.025,273.576 149.5,274C 141.507,274.5 133.507,274.666 125.5,274.5C 125.169,244.662 125.502,214.995 126.5,185.5 Z"/></g>
<g><path style="opacity:1" fill="#f0d03c" d="M 194.5,232.5 C 195.331,244.993 195.831,257.66 196,270.5C 197.758,271.469 198.258,272.636 197.5,274C 192.883,275.297 189.05,274.13 186,270.5C 177.076,277.915 169.743,276.582 164,266.5C 162.068,261.977 162.235,257.643 164.5,253.5C 164.5,257.167 164.5,260.833 164.5,264.5C 165.5,264.5 166.5,264.5 167.5,264.5C 167.674,266.861 168.007,269.194 168.5,271.5C 169.833,271.5 171.167,271.5 172.5,271.5C 172.178,265.642 172.511,259.975 173.5,254.5C 173.334,259.511 173.501,264.511 174,269.5C 178.658,272.564 182.325,271.564 185,266.5C 185.5,258.841 185.666,251.174 185.5,243.5C 186.329,251.323 186.829,259.323 187,267.5C 187.414,267.043 187.914,266.709 188.5,266.5C 189.466,268.396 189.799,270.396 189.5,272.5C 191.144,272.714 192.644,272.38 194,271.5C 194.5,258.504 194.667,245.504 194.5,232.5 Z"/></g>
<g><path style="opacity:1" fill="#f2d144" d="M 324.5,268.5 C 326.435,267.85 328.435,267.517 330.5,267.5C 330.157,265.517 330.824,264.183 332.5,263.5C 332.151,271.568 335.484,273.568 342.5,269.5C 343.5,268.833 344.5,268.167 345.5,267.5C 346.678,268.999 348.345,269.999 350.5,270.5C 350.291,271.086 349.957,271.586 349.5,272C 351.5,272.667 353.5,272.667 355.5,272C 354.841,264.243 354.508,256.409 354.5,248.5C 354.517,240.432 355.184,232.599 356.5,225C 354.5,224.833 352.5,224.667 350.5,224.5C 348.048,224.539 346.048,225.206 344.5,226.5C 342.952,226.179 342.285,225.179 342.5,223.5C 347.5,223.5 352.5,223.5 357.5,223.5C 355.431,239.036 354.931,254.703 356,270.5C 357.171,271.893 358.671,272.727 360.5,273C 354.913,275.511 349.913,274.678 345.5,270.5C 337.777,276.324 330.777,275.658 324.5,268.5 Z"/></g>
<g><path style="opacity:1" fill="#eecf45" d="M 225.5,226.5 C 226.814,239.527 226.814,252.693 225.5,266C 227,270.344 230,272.511 234.5,272.5C 234.17,256.991 234.504,241.658 235.5,226.5C 235.333,241.17 235.5,255.837 236,270.5C 237.171,271.893 238.671,272.727 240.5,273C 237.298,274.483 233.964,274.817 230.5,274C 228.333,273.167 226.833,271.667 226,269.5C 221.107,274.71 215.607,275.71 209.5,272.5C 210.873,272.657 212.207,272.49 213.5,272C 212.748,271.329 212.414,270.496 212.5,269.5C 218.766,272.475 222.933,270.475 225,263.5C 225.447,250.962 225.614,238.628 225.5,226.5 Z"/></g>
<g><path style="opacity:1" fill="#dcc559" d="M 244.5,271.5 C 244.389,272.117 244.056,272.617 243.5,273C 245.833,273.167 248.167,273.333 250.5,273.5C 253.269,273.471 255.603,272.805 257.5,271.5C 258.404,272.209 258.737,273.209 258.5,274.5C 253.167,274.5 247.833,274.5 242.5,274.5C 242.285,272.821 242.952,271.821 244.5,271.5 Z"/></g>
<g><path style="opacity:1" fill="#ddc758" d="M 266.5,271.5 C 268.397,272.805 270.731,273.471 273.5,273.5C 276.269,273.471 278.603,272.805 280.5,271.5C 281.404,272.209 281.737,273.209 281.5,274.5C 276.167,274.5 270.833,274.5 265.5,274.5C 265.263,273.209 265.596,272.209 266.5,271.5 Z"/></g>
<g><path style="opacity:1" fill="#eacc4a" d="M 271.5,288.5 C 276.167,288.5 280.833,288.5 285.5,288.5C 285.5,289.5 285.5,290.5 285.5,291.5C 283.5,291.5 281.5,291.5 279.5,291.5C 279.5,296.833 279.5,302.167 279.5,307.5C 278.325,307.719 277.325,307.386 276.5,306.5C 277.448,301.565 277.781,296.565 277.5,291.5C 275.5,291.5 273.5,291.5 271.5,291.5C 271.5,290.5 271.5,289.5 271.5,288.5 Z"/></g>
<g><path style="opacity:1" fill="#e8c84b" d="M 310.5,288.5 C 318.961,288.797 322.461,293.13 321,301.5C 317.984,307.372 313.484,308.872 307.5,306C 301.623,298.894 302.623,293.061 310.5,288.5 Z M 309.5,291.5 C 316.825,290.992 319.658,294.326 318,301.5C 310.417,306.839 306.751,304.839 307,295.5C 307.662,294.016 308.496,292.683 309.5,291.5 Z"/></g>
<g><path style="opacity:1" fill="#ecc746" d="M 135.5,288.5 C 141.537,287.101 145.871,289.101 148.5,294.5C 146.816,299.686 143.15,301.853 137.5,301C 138.261,303.179 137.928,305.345 136.5,307.5C 135.504,301.202 135.17,294.868 135.5,288.5 Z M 137.5,292.5 C 139.288,291.378 141.288,291.211 143.5,292C 145.527,293.396 145.86,295.062 144.5,297C 142.527,297.495 140.527,297.662 138.5,297.5C 138.784,295.585 138.451,293.919 137.5,292.5 Z"/></g>
<g><path style="opacity:1" fill="#e7ca4a" d="M 203.5,288.5 C 216.523,287.978 220.523,293.478 215.5,305C 211.747,306.989 207.747,307.822 203.5,307.5C 203.5,301.167 203.5,294.833 203.5,288.5 Z M 205.5,291.5 C 214.049,291.521 216.716,295.354 213.5,303C 210.986,304.252 208.32,304.752 205.5,304.5C 205.5,300.167 205.5,295.833 205.5,291.5 Z"/></g>
<g><path style="opacity:1" fill="#e5cb4e" d="M 183.5,288.5 C 192.453,288.963 195.953,293.63 194,302.5C 188.667,309.167 183.333,309.167 178,302.5C 176.268,296.314 178.101,291.647 183.5,288.5 Z M 183.5,291.5 C 189.462,290.964 192.295,293.63 192,299.5C 188.053,306.152 184.053,306.152 180,299.5C 179.279,295.946 180.446,293.28 183.5,291.5 Z"/></g>
<g><path style="opacity:1" fill="#d1bc70" d="M 228.5,301.5 C 227.596,302.209 227.263,303.209 227.5,304.5C 226.185,299.32 226.185,293.986 227.5,288.5C 228.492,292.783 228.826,297.116 228.5,301.5 Z"/></g>
<g><path style="opacity:0.535" fill="#d7bb41" d="M 293.5,288.5 C 295.456,294.412 296.123,300.745 295.5,307.5C 294.5,307.5 293.5,307.5 292.5,307.5C 292.209,301.077 292.542,294.744 293.5,288.5 Z"/></g>
<g><path style="opacity:1" fill="#eaca48" d="M 156.5,288.5 C 162.827,286.996 167.16,289.163 169.5,295C 169.11,297.459 167.776,299.126 165.5,300C 167.209,301.916 168.543,304.082 169.5,306.5C 168.5,307.833 167.5,307.833 166.5,306.5C 165.772,303.307 163.939,301.307 161,300.5C 160.167,300.667 159.333,300.833 158.5,301C 159.423,303.041 159.756,305.208 159.5,307.5C 158.5,307.5 157.5,307.5 156.5,307.5C 156.5,301.167 156.5,294.833 156.5,288.5 Z M 158.5,292.5 C 160.628,291.371 162.961,291.204 165.5,292C 166.833,293.667 166.833,295.333 165.5,297C 163.527,297.495 161.527,297.662 159.5,297.5C 159.784,295.585 159.451,293.919 158.5,292.5 Z"/></g>
<g><path style="opacity:0.851" fill="#e7c944" d="M 330.5,288.5 C 334.461,292.312 337.961,296.645 341,301.5C 341.172,297.129 341.672,292.796 342.5,288.5C 343.833,294.833 343.833,301.167 342.5,307.5C 338.856,303.56 335.69,299.226 333,294.5C 332.501,298.821 332.334,303.154 332.5,307.5C 331.5,307.5 330.5,307.5 329.5,307.5C 329.209,301.077 329.542,294.744 330.5,288.5 Z"/></g>
<g><path style="opacity:1" fill="#e7cd4b" d="M 255.5,288.5 C 259.137,288.487 262.137,289.82 264.5,292.5C 264.192,293.308 263.692,293.975 263,294.5C 257.146,289.736 252.979,290.903 250.5,298C 253.111,305.069 257.278,306.236 263,301.5C 263.692,302.025 264.192,302.692 264.5,303.5C 259.673,308.765 254.84,308.765 250,303.5C 246.838,296.514 248.671,291.514 255.5,288.5 Z"/></g>
<g><path style="opacity:0.435" fill="#ebcc47" d="M 227.5,304.5 C 227.263,303.209 227.596,302.209 228.5,301.5C 230.277,304.494 232.777,305.16 236,303.5C 237.062,298.577 237.895,293.577 238.5,288.5C 239.662,293.467 239.829,298.467 239,303.5C 237.873,306.068 235.873,307.402 233,307.5C 230.601,307.387 228.768,306.387 227.5,304.5 Z"/></g>
<g><path style="opacity:1" fill="#f13736" d="M 114.5,276.5 C 131.709,321.798 164.376,348.131 212.5,355.5C 212.5,355.833 212.5,356.167 212.5,356.5C 201.746,355.249 191.246,352.916 181,349.5C 180.5,350 180,350.5 179.5,351C 181.176,352.177 182.509,353.677 183.5,355.5C 188.337,356.436 192.671,358.102 196.5,360.5C 185.697,358.79 175.697,355.124 166.5,349.5C 140.034,335.918 121.367,315.252 110.5,287.5C 111.458,287.953 112.292,288.619 113,289.5C 113.014,287.402 112.847,285.569 112.5,284C 114.278,281.865 114.945,279.365 114.5,276.5 Z"/></g>
<g><path style="opacity:1" fill="#d53732" d="M 305.5,332.5 C 305.64,330.876 304.973,329.71 303.5,329C 307.194,328.143 309.86,325.977 311.5,322.5C 309.229,321.637 306.895,321.637 304.5,322.5C 305.29,321.206 306.29,320.039 307.5,319C 311.167,318.333 314.833,318.333 318.5,319C 314.664,324.003 310.33,328.503 305.5,332.5 Z"/></g>
<g><path style="opacity:1" fill="#f73434" d="M 305.5,332.5 C 298.714,339.063 291.048,344.396 282.5,348.5C 270.081,352.685 257.748,357.018 245.5,361.5C 238.395,363.012 231.062,363.679 223.5,363.5C 214.199,363.901 205.199,362.901 196.5,360.5C 192.671,358.102 188.337,356.436 183.5,355.5C 182.509,353.677 181.176,352.177 179.5,351C 180,350.5 180.5,350 181,349.5C 191.246,352.916 201.746,355.249 212.5,356.5C 220.507,356.666 228.507,356.5 236.5,356C 239.036,355.814 241.369,355.314 243.5,354.5C 266.751,349.375 287.085,338.708 304.5,322.5C 306.895,321.637 309.229,321.637 311.5,322.5C 309.86,325.977 307.194,328.143 303.5,329C 304.973,329.71 305.64,330.876 305.5,332.5 Z"/></g>
<g><path style="opacity:1" fill="#fc3130" d="M 166.5,349.5 C 164.069,347.51 161.736,345.343 159.5,343C 162.397,341.228 165.397,341.228 168.5,343C 169.726,344.635 171.059,346.135 172.5,347.5C 174.575,346.238 176.575,346.405 178.5,348C 174.846,350.786 170.846,351.286 166.5,349.5 Z"/></g>
<g><path style="opacity:0.475" fill="#d13e41" d="M 243.5,354.5 C 241.369,355.314 239.036,355.814 236.5,356C 228.507,356.5 220.507,356.666 212.5,356.5C 212.5,356.167 212.5,355.833 212.5,355.5C 222.852,355.601 233.185,355.267 243.5,354.5 Z"/></g>
<g><path style="opacity:1" fill="#dd3c3b" d="M 282.5,348.5 C 271.152,355.395 258.818,359.729 245.5,361.5C 257.748,357.018 270.081,352.685 282.5,348.5 Z"/></g>
</svg>
